<?xml version="1.0" encoding="utf-8"?>
<!-- Generator: Adobe Illustrator 25.1.0, SVG Export Plug-In . SVG Version: 6.00 Build 0)  -->
<svg version="1.1" id="Calque_1" xmlns="http://www.w3.org/2000/svg" xmlns:xlink="http://www.w3.org/1999/xlink" x="0px" y="0px"
	 viewBox="0 0 38.7 36.9" style="enable-background:new 0 0 38.7 36.9;" xml:space="preserve">
<style type="text/css">
	.st0{fill:url(#SVGID_1_);}
	.st1{fill:#201B40;}
	.st2{fill:url(#SVGID_2_);}
</style>
<g>
	<linearGradient id="SVGID_1_" gradientUnits="userSpaceOnUse" x1="19.1731" y1="36.334" x2="19.1731" y2="0.2075">
		<stop  offset="0" style="stop-color:#3A05FF"/>
		<stop  offset="1" style="stop-color:#007EFF"/>
	</linearGradient>
	<path class="st0" d="M32.1,10.9c0.4,0.4,0.6,0.9,0.6,1.6v19.4c0,1.3-0.4,2.3-1.3,3.2c-0.9,0.9-1.9,1.3-3.2,1.3H10.1
		c-1.3,0-2.3-0.4-3.2-1.3c-0.9-0.9-1.3-1.9-1.3-3.2V4.7c0-1.3,0.4-2.3,1.3-3.2c0.9-0.9,1.9-1.3,3.2-1.3h10.4c0.6,0,1.1,0.2,1.6,0.6
		L32.1,10.9z M28.2,35.2c0.9,0,1.7-0.3,2.4-1c0.7-0.7,1-1.5,1-2.4V12.6h-8.5c-0.8,0-1.5-0.3-2-0.8c-0.5-0.5-0.8-1.2-0.8-2V1.3H10.1
		c-0.9,0-1.7,0.3-2.4,1c-0.7,0.7-1,1.5-1,2.4v27.1c0,0.9,0.3,1.7,1,2.4c0.7,0.7,1.5,1,2.4,1H28.2z M31.1,11.5l-9.7-9.7v8
		c0,0.5,0.2,0.9,0.5,1.2c0.3,0.3,0.7,0.5,1.2,0.5H31.1z"/>
</g>
</svg>
