<?xml version="1.0" encoding="utf-8"?>
<!-- Generator: Adobe Illustrator 25.1.0, SVG Export Plug-In . SVG Version: 6.00 Build 0)  -->
<svg version="1.1" id="Calque_1" xmlns="http://www.w3.org/2000/svg" xmlns:xlink="http://www.w3.org/1999/xlink" x="0px" y="0px"
	 viewBox="0 0 169.3 169.3" style="enable-background:new 0 0 169.3 169.3;" xml:space="preserve">
<style type="text/css">
	.st0{fill:#E61853;}
</style>
<path class="st0" d="M169.3,84.7C169.3,38,131.3,0,84.7,0C38,0,0,38,0,84.7s38,84.7,84.7,84.7c36.9,0,68.4-23.8,79.9-56.9l0,0
	c0,0,0,0,0-0.1C167.6,103.7,169.3,94.4,169.3,84.7z M161.6,94.9c-0.9-3.3-2.2-6.7-3.8-9.9c-0.6-1.2-1.2-2.4-1.8-3.6
	c-3.4-6-11.8-23.6-33.6-33.9c0,0,0,0,0,0l-7.5,8.4c0,0,0,0,0,0l3.6-10.4c0,0,0,0,0,0c-0.1,0-17.7-7.4-23-5.5c0,0,0,0,0,0
	c0,0-1.8,10.1-1.8,10.2c0,0,0,0,0,0l-2.5-10.5c0,0,0,0,0,0c0,0-12.2-2.1-24.7,1.8c0,0,0,0,0,0l5.1,10.1c0,0,0,0.1,0,0
	c-0.7-0.2-7.1-1.7-12.1,10c0,0,0,0,0,0l-45.2-9.4c0,0,1.7,1,1.7,1l36.9,18.2c0,0,0,0,0,0c0,0-22.1,32.3-22.6,34.3
	c0,0-5.9,13.3,13.1,14.7c0,0,10.1-0.7,38-12.4c0,0,3.3-1.1,6.7-3.6c-3.5,2.7-7,3.7-7,3.7s14.7,10.6,4.4,33.3
	c-5.8,12.8-18.7,15.4-28.8,15.3C27.6,145.7,7,117.6,7,84.7C7,41.8,41.8,7,84.7,7s77.7,34.8,77.7,77.7
	C162.3,88.1,162.1,91.5,161.6,94.9z M76,79.6L64.7,88c0,0-3.5-4.2,1-7.7C65.7,80.4,70.2,77.1,76,79.6z"/>
</svg>
